<?xml version="1.0" standalone="no"?>
<!DOCTYPE svg PUBLIC "-//W3C//DTD SVG 20010904//EN"
 "http://www.w3.org/TR/2001/REC-SVG-20010904/DTD/svg10.dtd">
<svg version="1.0" xmlns="http://www.w3.org/2000/svg"
 width="512.000000pt" height="512.000000pt" viewBox="0 0 512.000000 512.000000"
 preserveAspectRatio="xMidYMid meet">

<g transform="translate(0.000000,512.000000) scale(0.100000,-0.100000)"
fill="#000000" stroke="none">
<path d="M2065 4855 c-65 -16 -171 -57 -244 -94 -64 -33 -175 -65 -165 -49 10
16 -60 1 -136 -29 -124 -49 -196 -122 -249 -255 -33 -82 -55 -117 -66 -106 -4
3 1 30 9 59 9 29 16 54 16 56 0 2 -14 -9 -31 -24 -44 -40 -97 -133 -120 -210
-22 -76 -28 -246 -11 -320 5 -24 6 -41 2 -38 -10 6 -30 85 -31 122 0 25 -1 26
-9 8 -16 -37 -10 -111 14 -182 21 -61 67 -159 52 -110 -3 11 -2 15 4 12 6 -3
10 -12 10 -20 0 -7 13 -27 29 -44 30 -32 31 -44 3 -34 -15 6 -15 4 1 -14 17
-19 17 -24 3 -57 -13 -32 -13 -37 1 -45 13 -7 15 -19 10 -57 -3 -27 -9 -57
-13 -67 -4 -12 -2 -17 7 -15 8 2 13 -11 15 -42 4 -86 24 -147 44 -135 4 3 8
-10 8 -28 0 -44 38 -200 61 -253 23 -50 18 -56 -49 -74 -111 -29 -150 -42
-145 -50 3 -4 -3 -7 -12 -6 -21 1 -27 -24 -18 -70 5 -32 23 -54 129 -165 25
-26 40 -56 55 -112 27 -98 66 -185 98 -219 24 -25 34 -55 63 -203 18 -91 37
-137 69 -172 16 -18 31 -48 35 -72 3 -23 11 -41 17 -41 6 0 8 -9 4 -20 -3 -10
-1 -28 5 -40 6 -11 7 -20 1 -20 -5 0 -7 -9 -4 -20 3 -11 9 -17 14 -14 5 3 6
-2 3 -11 -4 -8 -1 -21 5 -29 6 -7 8 -15 6 -18 -6 -5 25 -131 44 -180 17 -44
82 -140 159 -233 40 -49 80 -98 88 -108 29 -36 44 -85 79 -260 19 -98 43 -195
51 -217 21 -52 99 -122 210 -188 108 -64 178 -86 242 -77 66 9 152 34 152 44
0 5 6 9 13 8 30 -1 47 4 47 13 0 7 -6 8 -17 2 -18 -11 -52 13 -38 26 4 4 10 1
12 -5 3 -7 9 -13 14 -13 6 0 5 8 -1 20 -6 11 -15 18 -20 15 -5 -3 -11 -1 -15
5 -10 17 -67 12 -81 -7 -12 -17 -13 -17 -14 3 0 12 10 26 25 34 16 9 22 17 16
23 -5 5 -7 16 -4 23 3 9 -3 15 -18 16 -49 3 -54 4 -52 15 1 6 -12 9 -33 6 -39
-4 -58 10 -74 53 -13 33 -8 39 18 25 25 -13 65 -15 58 -2 -5 8 38 21 71 21 13
0 13 -2 2 -16 -12 -15 -11 -16 9 -10 24 8 29 -3 10 -22 -7 -7 -8 -12 -2 -12 5
0 2 -5 -6 -10 -11 -7 -5 -9 22 -7 20 1 34 5 31 10 -8 14 28 7 44 -8 18 -19 31
-11 15 8 -7 8 -8 18 -4 22 4 5 2 5 -4 2 -17 -10 -24 16 -9 36 16 22 26 22 18
1 -4 -12 6 -8 35 11 34 22 41 32 38 51 -3 13 0 24 5 24 5 0 9 5 9 11 0 5 -4 7
-10 4 -17 -11 -11 4 12 27 l21 21 -5 -21 c-8 -29 -4 -28 30 9 15 16 37 32 48
34 10 2 21 4 23 4 2 1 -4 9 -13 20 -16 18 -16 19 16 31 18 7 36 12 41 11 4 0
7 3 7 8 0 5 7 12 16 15 14 5 15 4 5 -7 -9 -11 -8 -17 5 -28 11 -9 14 -22 10
-43 -4 -22 -3 -27 4 -16 5 8 17 15 26 15 23 0 43 33 26 44 -14 8 -10 57 4 54
46 -10 48 -11 33 -30 -13 -16 -13 -17 4 -4 9 8 16 16 13 18 -6 6 39 49 60 57
16 6 16 8 4 16 -21 14 -32 12 -24 -3 5 -8 2 -8 -9 2 -23 18 -22 20 10 16 27
-3 51 17 74 60 7 14 4 12 -11 -5 l-22 -25 18 32 c10 18 20 30 23 28 2 -3 16
15 31 40 15 25 29 42 33 38 4 -3 7 2 7 13 0 13 7 20 21 21 23 2 71 52 63 65
-3 5 0 7 8 6 7 -2 14 7 16 20 2 12 10 22 18 22 13 0 16 6 13 26 0 4 3 10 8 13
4 3 21 24 38 46 16 22 33 43 38 46 5 4 7 11 3 17 -3 5 1 13 9 16 8 3 15 9 14
13 -1 4 0 17 1 28 2 17 3 16 9 -5 6 -20 8 -15 14 29 4 30 10 57 15 60 11 8 42
103 44 138 1 15 6 33 11 40 4 6 7 20 6 30 -3 18 10 83 16 83 12 0 75 -32 80
-41 12 -18 15 -91 6 -103 -10 -12 -7 -154 4 -196 4 -14 8 -32 9 -40 1 -9 4
-20 7 -25 3 -6 6 -26 8 -45 2 -19 8 -41 14 -49 10 -12 9 -13 -1 -7 -11 7 -12
4 -2 -13 6 -12 9 -27 7 -34 -2 -7 0 -20 5 -30 5 -11 5 -17 -2 -17 -15 0 -12
-26 5 -40 13 -11 13 -15 3 -21 -10 -7 -9 -9 4 -9 10 0 24 13 33 30 19 37 19
62 0 36 -17 -22 -25 -18 -28 13 -1 11 -4 21 -7 21 -10 0 1 64 12 71 5 3 5 24
-1 50 -12 52 -14 159 -3 159 4 0 20 39 36 88 15 48 32 97 37 110 5 13 9 35 9
49 0 15 7 34 15 42 16 19 23 80 11 100 -5 7 -1 21 10 34 11 13 7 11 -12 -5
-16 -16 -38 -28 -47 -28 -9 0 -17 -3 -17 -8 0 -4 -26 -8 -57 -10 -72 -3 -123
23 -123 63 0 14 -5 25 -11 25 -7 0 -8 -11 -4 -30 4 -20 3 -30 -5 -30 -8 0 -10
-9 -6 -25 4 -15 2 -25 -4 -25 -13 0 -12 106 1 132 6 10 5 18 -2 20 -6 2 -5 13
5 32 8 15 13 41 11 57 -2 16 -1 28 3 25 4 -2 8 26 9 62 4 87 7 115 18 131 5
10 4 12 -3 7 -7 -4 -12 -2 -12 3 0 6 5 11 11 11 6 0 9 6 6 14 -3 7 1 26 9 42
8 15 13 33 10 40 -3 7 1 15 8 17 7 3 16 15 19 26 3 12 1 19 -4 15 -11 -7 -11
-6 2 56 6 27 15 50 20 50 5 0 9 6 9 14 0 22 72 88 141 129 65 38 113 47 149
27 18 -9 18 -8 8 20 -6 20 -7 35 0 43 5 6 8 24 6 38 -3 14 4 62 15 105 11 43
20 68 21 54 1 -14 4 -19 7 -12 3 7 -2 28 -11 46 -9 19 -16 49 -15 68 l1 33 13
-40 c7 -22 14 -35 14 -30 7 44 15 271 14 410 0 191 -11 238 -79 347 -19 32
-33 62 -29 67 3 5 1 12 -5 16 -12 8 -13 25 -1 25 5 0 14 -12 19 -27 6 -16 11
-21 11 -12 1 26 -84 135 -126 163 -21 14 -51 28 -66 32 -30 7 -47 36 -47 80 0
17 -21 46 -70 95 -38 39 -70 68 -70 63 0 -4 -9 1 -21 12 -12 10 -23 17 -26 16
-8 -7 -112 51 -134 74 l-22 24 34 0 c36 0 81 -26 119 -71 l21 -24 -18 31 c-34
59 -110 110 -179 119 -103 13 -104 14 -105 48 0 18 -4 41 -9 52 l-9 20 0 -20
c-2 -29 -14 -45 -40 -50 -18 -3 -21 -2 -11 10 13 16 0 27 -19 15 -14 -8 -38 3
-111 49 l-35 23 30 -7 c17 -3 48 -15 69 -25 58 -28 54 -19 -8 19 -30 18 -92
43 -138 56 -46 13 -112 34 -148 48 -84 32 -223 44 -323 28 -63 -10 -82 -9
-152 8 -48 12 -82 16 -86 10 -3 -5 -12 -7 -20 -4 -8 3 -59 -3 -115 -13 -56
-10 -107 -16 -115 -13 -19 6 81 31 166 40 l70 8 -65 1 c-36 0 -87 -5 -115 -13z
m702 -81 c-3 -3 -12 -4 -19 -1 -8 3 -5 6 6 6 11 1 17 -2 13 -5z m-1168 -97
c-2 -2 -23 -18 -46 -36 -24 -18 -43 -28 -43 -22 0 11 82 71 89 65 2 -2 2 -5 0
-7z m754 -205 c-19 -12 -45 -82 -45 -120 0 -41 -7 -37 -12 7 -2 17 1 34 5 37
5 3 7 9 4 14 -10 15 24 70 43 70 12 0 13 -3 5 -8z m170 -55 c11 11 8 -13 -7
-47 -12 -29 -14 -30 -19 -11 -3 12 -1 21 3 21 9 0 6 31 -5 53 -4 6 0 4 8 -5 8
-10 17 -15 20 -11z m107 -14 c-11 -17 -11 -17 -6 0 3 10 6 24 7 30 0 9 2 9 5
0 3 -7 0 -20 -6 -30z m28 -19 c-1 -42 -3 -45 -15 -28 -9 12 -10 20 -3 22 5 2
10 15 10 28 0 13 2 24 5 24 3 0 4 -21 3 -46z m-228 4 c0 -23 -3 -29 -9 -19 -8
12 -4 51 5 51 2 0 4 -15 4 -32z m-1224 -178 c0 -49 -4 -90 -7 -90 -4 0 -12 13
-18 28 -10 23 -9 37 3 73 9 24 16 52 16 62 0 9 2 17 4 17 2 0 3 -40 2 -90z
m21 58 c-3 -7 -5 -2 -5 12 0 14 2 19 5 13 2 -7 2 -19 0 -25z m1604 9 c-10 -9
-11 -8 -5 6 3 10 9 15 12 12 3 -3 0 -11 -7 -18z m135 8 c-3 -8 0 -15 6 -15 7
0 6 -5 -2 -15 -10 -12 -10 -15 0 -15 8 0 10 -3 6 -7 -4 -5 -9 -6 -10 -3 -2 3
-11 -2 -22 -10 -15 -11 -16 -11 -6 0 15 18 16 44 0 34 -7 -4 -8 -3 -4 5 4 6
12 8 18 5 7 -4 8 -2 4 4 -4 7 -4 17 -1 22 10 15 18 12 11 -5z m714 -26 c0 -6
-4 -7 -10 -4 -5 3 -10 11 -10 16 0 6 5 7 10 4 6 -3 10 -11 10 -16z m-2573 -21
c-3 -8 -6 -5 -6 6 -1 11 2 17 5 13 3 -3 4 -12 1 -19z m2583 -13 c0 -17 -31
-75 -39 -75 -16 0 -13 32 5 58 14 20 34 30 34 17z m-1723 -37 c-3 -8 -6 -5 -6
6 -1 11 2 17 5 13 3 -3 4 -12 1 -19z m-880 -55 c-3 -10 -5 -2 -5 17 0 19 2 27
5 18 2 -10 2 -26 0 -35z m2813 -108 c13 -14 21 -25 18 -25 -2 0 -15 11 -28 25
-13 14 -21 25 -18 25 2 0 15 -11 28 -25z m-2743 -192 c-8 -7 -55 79 -62 112
-4 19 7 6 30 -39 20 -37 34 -70 32 -73z m1838 -33 c-3 -5 -12 -10 -18 -10 -7
0 -6 4 3 10 19 12 23 12 15 0z m-290 -50 c-17 -19 -17 -19 4 -15 11 2 27 7 34
11 9 6 9 5 0 -7 -21 -26 82 -24 160 5 37 13 64 20 61 15 -3 -6 -17 -14 -31
-20 -13 -5 -21 -13 -18 -19 3 -6 23 1 46 16 23 14 43 23 46 20 3 -2 16 -1 30
5 16 6 22 6 18 -1 -3 -6 3 -10 14 -10 23 0 28 -15 9 -23 -7 -3 1 -6 17 -6 17
-1 43 -8 59 -16 15 -8 32 -12 37 -9 5 3 9 0 9 -5 0 -14 -16 -14 -39 -1 -19 10
-91 2 -91 -10 0 -4 10 -5 23 -3 12 2 42 -1 67 -7 25 -6 52 -12 60 -14 8 -2 15
-11 15 -22 0 -11 7 -19 15 -18 10 1 15 -8 15 -26 1 -27 -8 -32 -32 -17 -22 14
-7 -22 22 -55 17 -18 29 -36 27 -40 -1 -5 2 -8 6 -8 5 0 18 -13 29 -28 15 -20
17 -29 8 -29 -8 0 -13 5 -12 10 1 5 -6 11 -16 12 -11 2 -22 7 -25 11 -4 4 2 4
13 1 19 -7 19 -6 1 7 -10 8 -15 19 -11 25 3 6 0 9 -8 5 -8 -3 -14 -13 -12 -22
2 -9 4 -20 4 -24 1 -4 8 -13 16 -21 13 -13 13 -16 -1 -21 -8 -3 -12 -2 -9 3 3
5 1 12 -5 16 -5 3 -10 1 -10 -6 0 -7 -7 -4 -15 7 -8 10 -15 14 -15 8 0 -6 7
-17 15 -24 19 -16 19 -34 0 -26 -13 5 -13 2 1 -18 20 -32 1 -45 -28 -19 l-21
18 16 -26 c10 -14 15 -28 11 -31 -3 -3 0 -9 7 -14 8 -5 10 -3 4 5 -5 9 -1 9
14 -1 12 -7 17 -14 11 -16 -5 -2 -10 -8 -10 -14 0 -6 8 -7 17 -4 10 4 14 4 10
-1 -5 -4 -21 -8 -37 -9 l-29 -2 22 20 22 19 -28 -17 c-33 -20 -24 -35 24 -36
19 -1 28 -3 21 -5 -6 -3 -10 -9 -7 -13 3 -5 0 -12 -6 -16 -8 -4 -9 -3 -5 4 5
8 2 10 -9 6 -14 -6 -14 -9 2 -28 10 -11 22 -24 27 -27 5 -4 6 -11 2 -17 -3 -6
-1 -14 5 -18 8 -5 9 -3 4 7 -4 8 9 -5 29 -29 21 -23 41 -40 46 -37 5 3 12 0
16 -6 5 -8 3 -9 -7 -3 -8 4 2 -8 21 -27 19 -20 44 -51 54 -69 l19 -33 -54 6
c-30 3 -124 11 -209 18 -85 7 -157 16 -160 19 -5 8 -79 34 -95 35 -5 0 -16 4
-22 8 -8 5 -13 4 -13 -2 0 -6 -7 -11 -16 -11 -14 0 -14 3 -4 15 15 18 8 19
-23 3 -12 -6 -29 -14 -37 -19 -8 -4 -14 -12 -13 -18 2 -6 -4 -8 -13 -4 -13 5
-13 7 -2 14 7 5 8 9 2 9 -6 0 -14 -3 -18 -7 -4 -4 -19 -9 -34 -10 -37 -3 -72
-9 -103 -18 -16 -4 -30 -2 -33 4 -4 6 -12 11 -17 11 -6 0 -7 -5 -3 -12 4 -6 3
-8 -4 -4 -6 3 -30 -1 -54 -10 -48 -17 -50 -18 -97 -9 -21 4 -31 3 -27 -4 4 -5
2 -12 -4 -16 -5 -3 -10 1 -10 9 0 9 -5 16 -11 16 -5 0 -8 -3 -5 -8 2 -4 -2
-16 -9 -26 -13 -17 -14 -17 -21 8 l-6 26 -19 -37 c-10 -21 -19 -44 -20 -53 0
-10 -3 -9 -9 5 -9 20 -13 12 -13 -26 0 -14 -18 -18 -114 -24 -107 -6 -116 -5
-133 13 -11 11 -16 23 -12 28 4 4 1 4 -5 0 -7 -4 -13 -2 -13 4 0 6 -5 8 -11 5
-6 -4 -20 2 -32 13 -14 13 -33 20 -54 18 -17 -1 -30 1 -28 5 3 3 -30 7 -73 8
-114 2 -115 2 -145 13 -21 8 -25 13 -15 19 8 6 9 9 1 9 -6 0 -16 12 -21 28 -5
15 -13 36 -18 46 -5 14 -4 17 4 12 7 -4 12 -2 12 6 1 10 4 9 13 -2 7 -9 21
-15 32 -15 19 0 20 7 21 133 0 107 -3 132 -14 132 -10 0 -12 5 -6 18 5 9 9 60
9 112 1 112 7 136 43 154 33 17 132 45 166 48 14 1 26 6 26 11 0 4 6 5 13 0
29 -19 78 -30 118 -27 24 2 52 4 62 4 13 1 17 6 12 17 -5 15 -4 15 12 1 27
-23 53 -30 46 -12 -4 11 0 14 19 10 23 -4 25 -1 23 25 -3 31 12 38 34 17 11
-11 12 -10 6 1 -6 11 -4 13 10 8 12 -5 25 1 42 20 l25 28 -4 -37 c-3 -29 -1
-35 9 -26 7 5 10 14 7 19 -3 5 -1 8 5 7 5 -2 17 6 25 17 9 12 15 15 16 7 0 -7
5 -10 10 -7 6 3 10 2 10 -4 0 -6 7 -8 15 -5 8 4 12 11 8 18 -5 8 -3 8 8 -1 19
-15 30 -17 38 -5 3 5 21 13 40 17 23 5 31 4 27 -4 -11 -17 0 -13 15 6 12 14
12 16 0 8 -10 -6 -12 -4 -6 4 5 9 10 10 18 2 8 -8 16 -6 29 6 21 18 52 27 42
12 -7 -12 46 -1 61 12 17 17 18 9 0 -11z m1295 -37 c0 -8 5 -11 12 -7 7 5 9 2
5 -9 -3 -9 -1 -18 6 -21 9 -3 9 -5 0 -5 -13 -1 -53 51 -53 69 0 10 3 10 15 0
8 -7 15 -19 15 -27z m-505 -123 c4 -6 -5 -5 -19 2 -14 6 -26 15 -26 20 0 10
36 -7 45 -22z m-1962 -110 c-5 -19 -23 -29 -23 -12 0 7 20 32 26 32 1 0 0 -9
-3 -20z m13 -37 c-1 -16 -5 -34 -10 -42 -6 -10 -5 -12 2 -7 8 5 9 -5 5 -31 -3
-21 -6 -50 -7 -65 -1 -14 -5 -24 -9 -21 -4 2 -5 -8 -2 -24 6 -27 6 -28 -7 -5
-8 12 -17 19 -21 16 -4 -4 -7 1 -7 12 0 13 -6 8 -17 -15 -13 -26 -14 -36 -5
-39 10 -3 10 -7 1 -18 -10 -12 -9 -13 5 -8 14 5 15 3 6 -20 -5 -14 -6 -26 -1
-26 15 0 20 -28 6 -34 -10 -3 -12 0 -9 12 5 16 5 16 -6 0 -8 -14 -7 -23 6 -43
13 -20 13 -25 3 -25 -11 0 -11 -2 1 -10 8 -5 15 -26 16 -49 1 -23 6 -47 12
-54 16 -19 -54 -87 -86 -84 -22 1 -23 2 -19 137 2 74 8 144 14 155 5 11 8 31
6 45 -5 37 -5 39 6 118 12 82 36 142 58 142 8 0 12 -4 9 -9 -9 -13 22 -7 36 7
16 16 16 16 14 -15z m1699 -522 c25 -9 19 -10 -35 -5 -36 4 -162 10 -280 14
l-215 8 250 -3 c149 -2 262 -7 280 -14z m-547 2 c-10 -2 -28 -2 -40 0 -13 2
-5 4 17 4 22 1 32 -1 23 -4z m-81 -9 c-3 -3 -12 -4 -19 -1 -8 3 -5 6 6 6 11 1
17 -2 13 -5z m604 -51 c28 -5 30 -7 14 -14 -11 -4 -36 -8 -55 -9 -29 -1 -32
-3 -15 -10 17 -7 15 -9 -12 -9 -37 -1 -45 21 -15 38 20 12 38 13 83 4z m-200
-28 c29 -16 30 -17 13 -29 -11 -7 -36 -19 -56 -26 -30 -11 -39 -11 -53 0 -17
14 -17 14 -31 -12 -7 -12 -10 -4 -11 30 -1 25 1 50 4 55 8 13 96 1 134 -18z
m306 -17 c-3 -7 -5 -2 -5 12 0 14 2 19 5 13 2 -7 2 -19 0 -25z m-1453 -8 c36
-11 68 -25 71 -30 8 -13 4 -13 -41 6 -22 9 -59 23 -84 30 -25 7 -38 13 -29 13
9 1 46 -8 83 -19z m330 -25 c-4 -8 -10 -15 -14 -15 -5 0 -15 -3 -24 -6 -12 -4
-16 0 -16 15 0 17 6 21 30 21 22 0 28 -4 24 -15z m1116 -25 c0 -5 16 -10 36
-10 21 0 33 -4 29 -10 -10 -16 -96 -52 -132 -55 -42 -4 -44 16 -4 56 28 28 71
40 71 19z m-1444 -41 c58 -35 59 -46 6 -45 -50 0 -62 8 -62 43 0 12 -6 24 -12
27 -7 3 -2 3 12 0 14 -4 39 -15 56 -25z m-646 -12 c0 -8 -11 -19 -25 -25 -34
-16 -38 -15 -31 4 5 14 4 15 -9 4 -12 -10 -15 -10 -15 1 0 11 -2 11 -10 -1 -5
-8 -10 -10 -10 -4 0 20 25 34 62 34 25 0 38 -5 38 -13z m991 -60 c9 -7 19 -22
23 -34 27 -86 195 -383 233 -413 90 -70 357 -99 460 -49 79 38 151 147 208
314 19 59 35 90 45 91 38 1 91 19 163 54 42 21 77 36 77 34 0 -3 9 0 20 6 20
11 26 3 21 -24 -1 -5 4 -13 10 -17 10 -6 10 -13 1 -34 -7 -14 -8 -24 -3 -21 5
4 12 -37 15 -91 4 -54 9 -118 12 -143 l5 -45 -20 40 -19 40 -3 -40 c-1 -22 -1
-55 0 -72 2 -18 -1 -38 -5 -45 -9 -14 -10 -19 -13 -63 -1 -21 -4 -26 -10 -16
-6 9 -9 0 -9 -27 -1 -25 6 -47 18 -60 14 -15 16 -22 7 -32 -9 -10 -9 -11 3 -5
13 8 13 6 2 -8 -8 -9 -10 -22 -6 -28 4 -8 3 -9 -4 -5 -7 4 -12 1 -12 -9 0 -9
4 -14 8 -11 4 2 8 -5 8 -17 0 -12 4 -35 8 -50 4 -18 3 -26 -3 -23 -5 3 -11 1
-13 -6 -5 -13 -48 52 -48 71 0 7 -4 10 -9 7 -5 -3 -8 -17 -8 -32 0 -16 2 -21
7 -14 5 9 16 1 33 -26 34 -53 44 -86 23 -78 -9 3 -13 11 -9 17 3 6 1 7 -5 3
-19 -12 -14 -23 13 -30 26 -7 36 -26 11 -22 -26 4 -47 28 -41 47 4 11 2 19 -5
19 -6 0 -9 -4 -6 -9 4 -5 0 -11 -6 -14 -8 -2 2 -18 26 -41 21 -20 36 -39 33
-42 -2 -3 -11 1 -18 8 -35 33 -46 38 -46 23 0 -8 4 -15 9 -15 4 0 6 -10 4 -22
-3 -13 -5 -27 -5 -32 -1 -5 -8 -2 -18 5 -15 13 -15 12 -5 -8 7 -12 17 -25 22
-28 6 -3 10 -12 10 -18 0 -8 -2 -9 -8 -1 -8 13 -62 25 -62 13 0 -4 5 -11 10
-14 6 -3 10 -14 10 -23 0 -13 -5 -12 -20 8 -23 31 -37 21 -16 -12 18 -28 10
-43 -23 -43 -16 0 -25 -6 -27 -20 -2 -18 -2 -18 10 -3 11 15 14 15 36 -2 21
-16 23 -21 11 -32 -11 -11 -13 -11 -6 1 4 8 2 17 -6 22 -21 13 -28 11 -27 -8
0 -10 -3 -27 -7 -37 -6 -15 -5 -17 5 -11 8 5 11 4 6 -3 -7 -11 -36 -6 -36 7 0
12 -79 53 -90 46 -5 -3 -10 1 -10 10 0 9 5 13 10 10 22 -13 8 11 -16 29 -25
18 -26 18 -16 0 11 -20 12 -26 12 -49 0 -8 5 -15 11 -15 6 0 18 -8 27 -18 10
-9 14 -13 10 -8 -11 14 -10 26 2 26 6 0 10 -7 10 -16 0 -8 4 -13 9 -9 5 3 2
-9 -6 -27 -18 -37 -29 -52 -20 -26 4 13 -2 22 -21 34 -15 8 -19 13 -10 10 12
-3 15 -1 11 9 -3 8 -9 12 -14 9 -5 -3 -13 6 -18 19 -5 13 -16 24 -24 24 -8 0
-13 -6 -10 -14 3 -7 9 -11 13 -8 4 3 10 -5 13 -17 9 -34 -15 -42 -36 -13 -10
14 -23 23 -28 19 -5 -3 -9 2 -9 11 0 11 -5 15 -14 12 -10 -4 -12 0 -8 15 4 16
2 19 -9 13 -8 -5 -5 1 5 14 14 15 16 25 9 32 -8 8 -11 6 -10 -7 1 -11 -4 -18
-10 -17 -7 2 -13 -4 -13 -13 0 -8 -5 -12 -11 -9 -6 4 -8 13 -5 20 2 7 -5 21
-17 32 -21 17 -21 17 -7 0 7 -10 14 -27 15 -38 1 -11 11 -33 23 -49 27 -36 27
-35 1 -37 -30 -3 -34 -9 -20 -40 9 -21 10 -25 1 -16 -7 6 -18 10 -24 9 -6 -2
-7 -1 -2 2 4 2 3 7 -3 11 -9 6 -12 16 -20 61 -1 3 -5 -2 -11 -10 -6 -9 -5 -17
3 -22 8 -5 7 -8 -5 -8 -9 0 -20 5 -23 10 -3 6 -12 10 -20 10 -7 0 3 -16 22
-35 32 -32 55 -44 111 -54 4 -1 1 -5 -6 -10 -11 -7 -11 -9 2 -14 20 -8 20 6 0
45 -10 19 -12 34 -6 40 11 11 45 -49 36 -63 -3 -5 0 -18 6 -29 9 -16 8 -18 -5
-14 -14 6 -21 -12 -16 -39 1 -5 -3 -6 -9 -2 -6 3 -8 11 -5 16 4 5 1 17 -5 26
-9 15 -11 15 -6 2 4 -16 1 -16 -35 -1 -29 11 -36 18 -27 25 9 6 8 7 -5 3 -12
-4 -25 6 -45 37 -15 23 -33 47 -41 53 -8 6 -11 15 -8 21 7 11 -39 11 -48 0 -3
-4 -2 -5 1 -2 12 8 64 -36 80 -67 12 -22 13 -33 4 -38 -8 -5 -6 -11 5 -20 17
-14 21 -35 3 -24 -7 4 -8 3 -4 -5 4 -6 13 -8 19 -5 7 4 9 4 5 -1 -4 -4 -3 -14
3 -22 9 -10 7 -13 -7 -13 -17 0 -17 -1 2 -14 10 -8 15 -18 11 -23 -5 -4 -18 3
-28 16 -16 19 -17 26 -7 32 16 11 0 10 -27 0 -15 -6 -33 2 -75 34 -96 73 -138
89 -66 24 37 -33 44 -45 35 -55 -11 -13 -8 -17 8 -11 5 1 7 6 5 10 -1 5 3 7
10 4 7 -2 12 -10 11 -16 -2 -6 2 -11 7 -11 6 0 10 5 10 11 0 7 9 0 21 -15 23
-29 18 -46 -12 -46 -11 0 -18 4 -14 9 3 6 -5 15 -17 22 -21 11 -22 11 -9 -5
11 -13 12 -22 2 -42 -6 -14 -8 -30 -5 -36 4 -7 2 -8 -5 -4 -13 8 -11 37 3 48
5 3 -1 18 -13 33 -11 15 -21 24 -21 20 0 -5 7 -16 15 -25 14 -15 14 -19 1 -29
-8 -7 -13 -18 -10 -26 3 -7 1 -16 -4 -19 -6 -4 -9 5 -7 20 2 18 -7 35 -33 60
-19 19 -40 34 -46 34 -6 0 6 -15 27 -33 38 -31 39 -34 32 -78 -4 -29 -12 -46
-20 -46 -8 0 -12 4 -9 9 5 7 -2 17 -34 53 -7 8 -10 15 -5 15 4 0 -3 7 -15 16
-13 9 -26 13 -30 9 -3 -3 0 -10 8 -15 7 -5 15 -16 16 -24 1 -9 -1 -14 -5 -12
-15 10 -61 14 -61 7 0 -5 8 -15 17 -22 11 -10 14 -10 9 -1 -4 6 -2 12 3 12 6
0 11 -8 11 -17 0 -15 2 -16 10 -3 6 9 10 10 10 3 0 -6 -5 -15 -11 -18 -7 -5
-4 -14 7 -26 17 -19 16 -19 -7 -17 -19 2 -23 -1 -21 -19 2 -12 -2 -24 -8 -28
-6 -4 -10 5 -11 22 l-1 28 -8 -30 -8 -30 -1 30 c-1 17 -5 26 -9 20 -12 -16
-42 -17 -42 -1 0 23 -24 25 -38 2 -9 -14 -12 -16 -8 -3 3 11 0 17 -9 17 -8 0
-15 -7 -15 -16 0 -14 -1 -14 -16 0 -19 20 -20 20 -28 0 -3 -8 -2 -12 4 -9 12
7 12 -40 -1 -75 -9 -25 -9 -25 -5 2 2 16 -3 36 -10 45 -12 16 -13 13 -14 -27
-1 -33 -4 -40 -9 -25 -5 11 -6 26 -4 33 3 6 -2 12 -11 12 -13 0 -15 4 -7 18 7
14 6 19 -4 19 -7 0 -11 -6 -8 -13 7 -18 -18 -29 -28 -13 -7 11 -9 10 -9 -3 0
-11 -5 -15 -15 -12 -12 5 -13 10 -4 20 9 11 8 18 -1 29 -9 11 -10 15 0 15 21
0 5 33 -17 35 -18 1 -20 -2 -12 -16 13 -25 11 -32 -5 -26 -10 4 -13 0 -11 -14
2 -12 -4 -24 -16 -32 -10 -6 -19 -19 -20 -27 -1 -8 -7 5 -14 30 -12 40 -13 42
-14 15 -1 -22 -4 -26 -10 -15 -6 8 -7 18 -5 22 3 4 0 8 -6 8 -7 0 -9 8 -5 21
5 15 3 20 -6 17 -8 -3 -15 -17 -17 -31 -2 -15 -8 -27 -13 -27 -6 0 -7 9 -4 20
4 12 2 27 -5 35 -7 8 -7 15 -1 19 5 4 24 27 41 52 16 25 25 42 18 37 -31 -19
-40 -9 -13 14 17 14 25 22 18 19 -6 -4 -14 -2 -18 3 -3 6 -12 8 -20 5 -8 -4
-13 -10 -10 -14 3 -5 1 -11 -4 -14 -16 -11 -5 26 12 39 9 7 14 15 10 18 -3 4
-1 7 6 7 7 0 10 4 7 9 -3 4 7 6 22 4 48 -8 75 -4 111 16 12 7 32 10 43 8 12
-3 21 0 25 10 4 10 8 11 13 3 11 -18 37 -1 35 23 -3 31 4 40 21 26 14 -12 14
-11 18 34 1 6 -4 12 -11 12 -6 0 -15 3 -19 8 -11 11 -36 9 -29 -3 4 -6 -5 -6
-22 1 -27 11 -161 13 -250 5 -48 -5 -58 10 -15 20 57 14 68 40 23 55 -34 12
-51 40 -21 34 11 -2 23 3 28 11 5 10 26 16 53 18 24 1 50 6 58 11 8 4 71 10
140 13 107 3 129 1 146 -13 17 -14 18 -16 2 -11 -10 3 -16 2 -12 -3 7 -13 71
-6 124 13 50 18 91 21 91 5 0 -6 7 -4 15 5 19 18 19 24 0 43 -8 8 -13 18 -10
22 5 9 -41 3 -70 -9 -43 -18 -55 -18 -107 -5 -29 8 -69 13 -88 12 -19 -1 -34
3 -33 8 2 14 -60 17 -68 3 -4 -6 -9 -2 -14 11 -5 16 -14 21 -43 21 -28 0 -33
-3 -22 -10 12 -8 9 -10 -12 -10 -16 0 -28 -4 -28 -10 0 -17 -65 -11 -110 11
-39 19 -48 20 -75 9 -37 -15 -87 -21 -79 -9 3 5 9 9 14 9 14 0 114 69 123 85
5 10 4 21 -3 30 -8 9 -8 15 0 20 6 3 7 12 4 18 -4 7 -4 9 0 6 4 -4 19 4 33 17
29 27 37 25 40 -14 6 -77 12 -107 19 -104 5 1 9 6 9 11 0 5 3 13 8 17 4 4 7 0
7 -9 0 -24 17 -21 31 4 6 12 7 19 2 16 -6 -4 -10 10 -11 30 -1 20 -7 40 -13
43 -6 4 -10 10 -10 14 3 20 -1 25 -16 19 -10 -3 -7 3 7 13 14 10 28 22 31 27
4 5 11 7 16 4 6 -4 8 4 5 20 -5 26 -5 26 44 18 59 -8 65 -13 40 -31 -11 -8
-14 -14 -8 -14 7 0 12 -8 13 -17 0 -14 2 -13 9 5 7 16 18 22 39 22 32 0 75 35
64 53 -3 5 -22 16 -42 25 -83 35 -153 33 -202 -7 -21 -17 -26 -17 -46 -4 -12
8 -32 16 -45 17 -124 14 -157 80 -99 200 28 59 34 92 56 317 3 41 28 95 47
102 25 10 93 6 109 -6z m905 4 c-4 -5 -2 -21 4 -35 5 -15 5 -28 0 -31 -5 -3
-7 -16 -4 -29 2 -13 -3 -39 -12 -57 l-15 -34 5 34 c4 18 6 62 6 97 0 38 4 64
11 64 5 0 8 -4 5 -9z m-789 -121 c33 -131 112 -238 215 -289 34 -17 56 -31 49
-31 -22 0 -112 51 -151 86 -49 45 -95 116 -118 185 -30 85 -35 112 -21 107 7
-2 18 -29 26 -58z m-1029 -225 c17 -34 47 -82 68 -106 30 -33 33 -40 14 -28
-65 42 -123 162 -135 279 -5 54 -5 54 10 -14 8 -37 27 -96 43 -131z m1789 133
c-3 -8 -6 -5 -6 6 -1 11 2 17 5 13 3 -3 4 -12 1 -19z m-1233 -219 c-16 -17
-38 -35 -49 -41 -11 -6 0 8 25 30 53 49 65 54 24 11z m789 -16 c-7 -2 -19 -2
-25 0 -7 3 -2 5 12 5 14 0 19 -2 13 -5z m-687 -45 c-3 -24 -5 -53 -5 -65 -1
-14 -6 -20 -18 -18 -10 1 -26 -4 -35 -13 -30 -25 -22 5 19 75 20 34 39 63 41
63 2 0 1 -19 -2 -42z m802 35 c-15 -2 -42 -2 -60 0 -18 2 -6 4 27 4 33 0 48
-2 33 -4z m726 -92 c-2 -1 1 -14 7 -28 6 -16 6 -22 -1 -18 -6 3 -10 1 -10 -6
0 -8 -6 -7 -18 4 -13 12 -17 27 -14 51 4 32 5 33 21 18 10 -10 16 -19 15 -21z
m-1638 -96 c-27 -76 -34 -135 -15 -135 6 0 17 -7 26 -15 8 -8 20 -12 26 -8 7
3 3 -3 -7 -16 -11 -12 -22 -18 -25 -14 -8 11 -41 13 -41 2 0 -5 -11 -9 -24 -9
-14 0 -31 -9 -39 -21 -8 -11 -18 -16 -21 -11 -3 6 0 13 6 15 8 4 7 6 -4 6 -9
1 -19 -5 -21 -11 -3 -7 -6 1 -6 18 -1 23 -7 33 -21 37 -11 3 -20 13 -20 22 0
9 -3 14 -7 12 -5 -3 -14 1 -21 9 -7 8 -8 14 -3 14 5 0 7 12 5 27 -9 49 13 78
97 128 100 59 133 69 137 42 2 -11 -8 -52 -22 -92z m-375 84 c6 -12 7 -19 1
-15 -5 3 -12 -3 -15 -15 -4 -16 -3 -18 8 -9 10 8 15 8 21 -1 5 -8 3 -9 -6 -4
-10 6 -12 4 -7 -9 4 -9 3 -15 -2 -12 -5 3 -11 -1 -15 -9 -3 -9 0 -15 8 -15 9
0 12 -8 8 -25 -2 -14 -7 -25 -11 -25 -10 0 -33 109 -25 122 4 7 3 8 -4 4 -7
-4 -12 -1 -12 8 0 13 13 23 32 25 4 1 12 -9 19 -20z m2013 -179 c4 -25 3 -31
-4 -20 -5 8 -10 26 -10 39 0 32 6 24 14 -19z m-2017 8 c-3 -8 -6 -5 -6 6 -1
11 2 17 5 13 3 -3 4 -12 1 -19z m-43 -4 c3 -8 2 -12 -4 -9 -6 3 -10 10 -10 16
0 14 7 11 14 -7z m2037 -101 c13 -16 12 -17 -3 -4 -17 13 -22 21 -14 21 2 0
10 -8 17 -17z m-1826 -123 c3 -5 1 -10 -4 -10 -6 0 -11 5 -11 10 0 6 2 10 4
10 3 0 8 -4 11 -10z m-98 -15 c0 -8 -4 -12 -9 -9 -5 3 -6 10 -3 15 9 13 12 11
12 -6z m138 -33 c-3 -3 -5 0 -5 7 0 7 -4 10 -10 6 -5 -3 -8 -11 -6 -18 1 -7 1
-9 -1 -4 -3 4 -9 5 -14 2 -5 -4 -6 1 -3 9 3 9 10 16 15 16 5 0 9 8 10 18 0 12
3 10 10 -7 5 -13 7 -26 4 -29z m1739 18 c-6 -6 -10 -3 -10 10 0 13 4 16 10 10
7 -7 7 -13 0 -20z m-30 -74 c9 -15 12 -27 6 -31 -5 -3 -16 8 -25 25 -19 36 -4
40 19 6z m-1717 -23 c-3 -10 -5 -4 -5 12 0 17 2 24 5 18 2 -7 2 -21 0 -30z
m1393 -113 c0 8 7 4 17 -10 25 -35 26 -53 2 -47 -10 3 -17 1 -13 -4 3 -5 0 -9
-5 -9 -6 0 -11 6 -11 14 0 8 -7 21 -15 30 -9 8 -12 22 -8 32 6 16 7 16 20 -2
9 -13 13 -14 13 -4z m104 -52 c-2 -3 0 -9 6 -13 5 -3 10 -11 10 -18 0 -6 -7
-2 -15 9 -8 10 -15 15 -15 10 0 -5 -7 -2 -17 5 -15 13 -15 12 -5 -8 16 -30 15
-37 -3 -19 -10 10 -13 24 -10 39 6 22 9 23 30 13 13 -6 21 -14 19 -18z m-826
-53 c-3 -3 -9 2 -12 12 -6 14 -5 15 5 6 7 -7 10 -15 7 -18z m581 -34 c-2 -6
-12 4 -22 22 l-18 32 21 -21 c13 -12 21 -27 19 -33z m-875 12 c4 -5 12 -9 17
-9 5 -1 13 -2 19 -3 15 -2 -5 -46 -21 -46 -8 -1 -13 -6 -12 -11 1 -6 -10 -11
-25 -10 -17 1 -26 -4 -24 -12 2 -10 -2 -10 -18 0 -10 7 -15 15 -11 18 5 3 5
14 1 25 -4 11 -2 28 4 38 11 17 56 24 70 10z m707 -10 c13 -16 12 -17 -3 -4
-17 13 -22 21 -14 21 2 0 10 -8 17 -17z m224 -52 c3 -5 1 -12 -5 -16 -5 -3
-10 1 -10 9 0 18 6 21 15 7z m-950 -75 c12 -12 12 -15 -2 -21 -10 -3 -14 -3
-10 1 4 4 2 13 -4 21 -15 17 -1 17 16 -1z m45 -15 c-4 -9 -8 -19 -9 -23 -1 -5
-4 -8 -8 -7 -5 1 -6 6 -4 13 2 6 4 16 4 22 0 6 6 11 13 11 9 0 10 -6 4 -16z
m577 -68 c-4 -3 -14 2 -22 13 -22 29 -18 37 7 14 12 -11 18 -23 15 -27z m77
11 c10 -25 -1 -29 -14 -5 -6 12 -7 21 -1 21 5 0 12 -7 15 -16z m-235 -94 c0
-23 -1 -23 -9 -5 -5 11 -9 14 -9 7 -1 -7 -5 -11 -10 -7 -5 3 -12 -3 -14 -12
-4 -14 -5 -13 -6 5 0 12 4 22 9 22 6 0 10 12 10 27 0 26 1 26 15 7 8 -10 14
-30 14 -44z m651 30 c0 -5 -7 -10 -16 -10 -8 0 -12 5 -9 10 3 6 10 10 16 10 5
0 9 -4 9 -10z m-721 -45 c0 -5 -4 -3 -9 5 -5 8 -9 22 -9 30 0 16 17 -16 18
-35z m-199 4 c0 -6 -4 -7 -10 -4 -5 3 -10 11 -10 16 0 6 5 7 10 4 6 -3 10 -11
10 -16z m53 -4 c-3 -9 -8 -14 -10 -11 -3 3 -2 9 2 15 9 16 15 13 8 -4z m710
-120 c-3 -9 -8 -14 -10 -11 -3 3 -2 9 2 15 9 16 15 13 8 -4z m-223 -109 c0 -2
-7 -7 -16 -10 -8 -3 -12 -2 -9 4 6 10 25 14 25 6z m-225 -406 c3 -5 1 -10 -4
-10 -6 0 -11 5 -11 10 0 6 2 10 4 10 3 0 8 -4 11 -10z"/>
<path d="M2086 3592 c-3 -5 1 -9 9 -9 8 0 12 4 9 9 -3 4 -7 8 -9 8 -2 0 -6 -4
-9 -8z"/>
<path d="M3172 3294 c10 -10 20 -16 22 -13 3 3 -5 11 -17 18 -21 13 -21 12 -5
-5z"/>
<path d="M1690 2986 c0 -8 4 -17 9 -20 5 -4 7 3 4 14 -6 23 -13 26 -13 6z"/>
<path d="M2475 2940 c-3 -6 1 -7 9 -4 18 7 21 14 7 14 -6 0 -13 -4 -16 -10z"/>
<path d="M1470 3321 c0 -6 5 -13 10 -16 6 -3 10 1 10 9 0 9 -4 16 -10 16 -5 0
-10 -4 -10 -9z"/>
<path d="M1455 3270 c-3 -5 -1 -10 4 -10 6 0 11 5 11 10 0 6 -2 10 -4 10 -3 0
-8 -4 -11 -10z"/>
<path d="M3427 2193 c-4 -3 -7 -16 -6 -27 0 -19 1 -19 10 3 10 24 8 36 -4 24z"/>
<path d="M3406 2083 c-6 -14 -5 -15 5 -6 7 7 10 15 7 18 -3 3 -9 -2 -12 -12z"/>
<path d="M3397 2040 c3 -11 10 -20 15 -20 5 0 8 -6 7 -12 -1 -7 -1 -26 0 -43
l2 -30 10 25 c8 18 6 34 -7 62 -18 40 -36 52 -27 18z"/>
<path d="M3370 2030 c0 -5 5 -10 11 -10 5 0 7 5 4 10 -3 6 -8 10 -11 10 -2 0
-4 -4 -4 -10z"/>
<path d="M2347 1869 c4 -13 8 -18 11 -10 2 7 -1 18 -6 23 -8 8 -9 4 -5 -13z"/>
<path d="M2325 1870 c6 -9 4 -12 -7 -8 -8 4 -15 1 -15 -6 0 -6 9 -12 19 -12
20 0 24 21 6 32 -7 5 -8 3 -3 -6z"/>
<path d="M2277 1863 c-10 -9 -9 -23 1 -23 5 0 9 7 9 15 0 17 -1 18 -10 8z"/>
<path d="M2102 1838 c-17 -17 -15 -25 6 -30 15 -4 18 -1 14 18 -5 28 -4 28
-20 12z"/>
<path d="M2366 1804 c-8 -20 -8 -24 2 -24 4 0 8 9 9 20 2 24 -3 26 -11 4z"/>
<path d="M2406 1807 c3 -10 9 -15 12 -12 3 3 0 11 -7 18 -10 9 -11 8 -5 -6z"/>
<path d="M3270 1788 c0 -9 7 -22 17 -29 15 -13 15 -12 3 11 -17 34 -20 36 -20
18z"/>
<path d="M2745 1730 c-3 -5 -1 -10 4 -10 6 0 11 5 11 10 0 6 -2 10 -4 10 -3 0
-8 -4 -11 -10z"/>
<path d="M2766 1702 c-3 -5 1 -9 9 -9 8 0 12 4 9 9 -3 4 -7 8 -9 8 -2 0 -6 -4
-9 -8z"/>
<path d="M3023 1685 c0 -8 4 -15 9 -15 4 0 8 4 8 9 0 6 -4 12 -8 15 -5 3 -9
-1 -9 -9z"/>
<path d="M3300 1695 c0 -2 10 -10 23 -16 20 -11 21 -11 8 4 -13 16 -31 23 -31
12z"/>
<path d="M2813 1675 c0 -8 4 -12 9 -9 5 3 6 10 3 15 -9 13 -12 11 -12 -6z"/>
<path d="M3056 1639 c2 -18 0 -28 -6 -24 -6 3 -10 12 -10 20 0 8 -4 16 -9 19
-5 4 -7 -3 -4 -14 6 -21 19 -33 40 -36 9 -2 10 3 4 14 -4 10 -6 22 -4 29 2 6
0 14 -5 17 -5 3 -8 -8 -6 -25z"/>
<path d="M3230 1621 c0 -6 4 -13 10 -16 6 -3 7 1 4 9 -7 18 -14 21 -14 7z"/>
<path d="M3010 1600 c0 -5 5 -10 11 -10 5 0 7 5 4 10 -3 6 -8 10 -11 10 -2 0
-4 -4 -4 -10z"/>
<path d="M3276 1588 c3 -5 10 -6 15 -3 13 9 11 12 -6 12 -8 0 -12 -4 -9 -9z"/>
<path d="M2930 1581 c0 -6 5 -13 10 -16 6 -3 10 1 10 9 0 9 -4 16 -10 16 -5 0
-10 -4 -10 -9z"/>
<path d="M3065 1570 c10 -11 20 -20 23 -20 3 0 -3 9 -13 20 -10 11 -20 20 -23
20 -3 0 3 -9 13 -20z"/>
<path d="M3295 1570 c-3 -5 -5 -10 -3 -11 33 -8 38 -7 27 7 -14 17 -16 17 -24
4z"/>
<path d="M3177 1556 c-3 -8 0 -17 8 -19 7 -3 12 0 11 8 -3 22 -13 27 -19 11z"/>
<path d="M3263 1555 c0 -8 4 -12 9 -9 5 3 6 10 3 15 -9 13 -12 11 -12 -6z"/>
<path d="M2900 1547 c0 -3 12 -12 26 -22 15 -9 23 -12 20 -6 -7 11 -46 35 -46
28z"/>
<path d="M3229 1532 c6 -12 16 -24 22 -28 8 -4 8 -1 0 14 -6 12 -16 24 -22 28
-8 4 -8 1 0 -14z"/>
<path d="M2766 1431 c-3 -5 3 -11 15 -14 16 -4 18 -3 8 9 -13 16 -16 17 -23 5z"/>
<path d="M2756 1383 c30 -28 35 -29 28 -5 -5 13 -4 14 4 3 6 -8 8 -20 6 -26
-6 -15 33 -27 42 -14 7 13 -46 55 -64 51 -8 -2 -12 0 -9 5 3 5 -3 9 -13 9 -16
0 -15 -3 6 -23z"/>
<path d="M2820 1382 c0 -4 9 -13 20 -20 11 -7 20 -9 20 -4 0 4 -9 13 -20 20
-11 7 -20 9 -20 4z"/>
<path d="M2674 1287 c-4 -6 -4 -9 1 -5 4 4 16 -3 26 -15 13 -16 18 -18 19 -7
0 22 -37 44 -46 27z"/>
<path d="M2835 1290 c-3 -6 1 -7 9 -4 18 7 21 14 7 14 -6 0 -13 -4 -16 -10z"/>
<path d="M2816 1237 c3 -10 9 -15 12 -12 3 3 0 11 -7 18 -10 9 -11 8 -5 -6z"/>
<path d="M2510 1173 c0 -21 22 -63 31 -58 4 3 10 1 14 -5 3 -5 12 -10 18 -10
7 0 4 5 -6 11 -10 6 -27 25 -38 42 -10 18 -19 27 -19 20z"/>
<path d="M2141 1104 c0 -11 3 -14 6 -6 3 7 2 16 -1 19 -3 4 -6 -2 -5 -13z"/>
<path d="M2270 1080 c0 -11 4 -20 9 -20 5 0 7 9 4 20 -3 11 -7 20 -9 20 -2 0
-4 -9 -4 -20z"/>
<path d="M2172 1060 c0 -14 2 -19 5 -12 2 6 2 18 0 25 -3 6 -5 1 -5 -13z"/>
<path d="M3988 2773 c8 -3 22 -19 33 -37 10 -17 19 -26 19 -20 0 17 -40 64
-53 63 -8 0 -7 -3 1 -6z"/>
<path d="M3896 2732 c-52 -30 -123 -119 -147 -186 -7 -20 -17 -36 -21 -36 -4
0 -8 -8 -8 -18 0 -10 -5 -23 -11 -29 -11 -11 -2 -63 11 -63 5 0 15 7 24 15 20
21 30 19 51 -9 10 -13 24 -22 31 -19 24 9 9 48 -34 88 l-42 40 25 27 c14 15
25 31 25 36 0 15 55 57 74 57 10 0 24 -9 30 -20 6 -11 15 -23 19 -26 5 -3 8
-9 7 -13 -2 -7 38 -106 43 -106 4 0 -9 106 -18 153 -9 42 1 47 35 17 20 -17
23 -29 22 -78 -2 -41 0 -53 8 -42 13 20 13 101 -1 156 -18 70 -62 90 -123 56z"/>
<path d="M4052 2630 c0 -14 2 -19 5 -12 2 6 2 18 0 25 -3 6 -5 1 -5 -13z"/>
<path d="M3988 2463 c-2 -5 -1 -26 3 -48 l7 -40 -1 48 c-1 47 -2 54 -9 40z"/>
<path d="M4051 2444 c0 -11 3 -14 6 -6 3 7 2 16 -1 19 -3 4 -6 -2 -5 -13z"/>
<path d="M4041 2394 c0 -11 3 -14 6 -6 3 7 2 16 -1 19 -3 4 -6 -2 -5 -13z"/>
<path d="M3982 2345 c0 -16 2 -22 5 -12 2 9 2 23 0 30 -3 6 -5 -1 -5 -18z"/>
<path d="M3957 2265 c-11 -25 -39 -65 -63 -89 -55 -56 -57 -67 -4 -25 39 31
96 127 88 148 -1 6 -11 -9 -21 -34z"/>
<path d="M3602 2270 c0 -14 2 -19 5 -12 2 6 2 18 0 25 -3 6 -5 1 -5 -13z"/>
<path d="M3692 2217 c-11 -32 -16 -67 -9 -67 9 0 67 32 67 36 0 3 -5 2 -12 -2
-15 -10 -37 23 -31 46 9 32 -2 23 -15 -13z"/>
<path d="M3923 2078 c-15 -20 -25 -38 -20 -38 3 0 12 11 21 25 17 26 16 35 -1
13z"/>
<path d="M3741 1304 c0 -11 3 -14 6 -6 3 7 2 16 -1 19 -3 4 -6 -2 -5 -13z"/>
<path d="M3370 1249 c0 -5 5 -7 10 -4 6 3 10 8 10 11 0 2 -4 4 -10 4 -5 0 -10
-5 -10 -11z"/>
<path d="M3226 1073 c-6 -14 -5 -15 5 -6 7 7 10 15 7 18 -3 3 -9 -2 -12 -12z"/>
<path d="M3200 1030 c-6 -11 -8 -20 -6 -20 3 0 10 9 16 20 6 11 8 20 6 20 -3
0 -10 -9 -16 -20z"/>
<path d="M3146 973 c-6 -14 -5 -15 5 -6 7 7 10 15 7 18 -3 3 -9 -2 -12 -12z"/>
<path d="M2802 720 c-13 -16 -28 -30 -34 -30 -6 0 -5 7 3 17 8 10 -2 5 -21
-10 -64 -50 -61 -47 -48 -61 7 -8 15 -10 18 -6 3 4 27 26 55 50 27 23 50 49
51 56 3 20 1 18 -24 -16z"/>
<path d="M2925 739 c-4 -6 -4 -13 -1 -16 3 -4 6 -1 6 6 0 7 5 9 12 5 7 -4 8
-3 4 4 -9 15 -13 15 -21 1z"/>
<path d="M2495 490 c-3 -5 -1 -10 4 -10 6 0 11 5 11 10 0 6 -2 10 -4 10 -3 0
-8 -4 -11 -10z"/>
</g>
</svg>
